<?xml version="1.0" encoding="utf-8"?>
<!-- Generator: Adobe Illustrator 23.0.1, SVG Export Plug-In . SVG Version: 6.00 Build 0)  -->
<svg version="1.1" id="Layer_1" xmlns="http://www.w3.org/2000/svg" xmlns:xlink="http://www.w3.org/1999/xlink" x="0px" y="0px"
	 viewBox="65 0 206.6 71.5" style="enable-background:new 0 0 256.6 71.5;" xml:space="preserve">
<style type="text/css">
	.st0{fill:#0075BF;}
	.st1{fill:#272727;}
	.st2{fill:#110000;}
</style>
<title>brand-central</title>
<g>
	<g>
		<path class="st0" d="M110,25.3c0.8,1.1,1.2,2.4,1.2,3.8c0.1,2-0.9,3.9-2.6,5c-1.7,1.2-4.3,1.8-7.6,1.8H87.6V11.1h12.7
			c3.2,0,5.6,0.6,7.2,1.8c1.6,1,2.5,2.8,2.5,4.7c0,1.1-0.3,2.2-0.9,3.2s-1.4,1.7-2.4,2.2C108,23.4,109.1,24.2,110,25.3z M94.6,16.2
			V21h4.8c2.4,0,3.5-0.8,3.5-2.4s-1.2-2.4-3.5-2.4H94.6z M104.1,28.3c0-1.7-1.2-2.5-3.7-2.5h-5.9v5h5.9
			C102.9,30.8,104.1,30,104.1,28.3z"/>
		<path class="st0" d="M124.9,29.3h-3.8v6.6h-7V11.1h11.3c2,0,4,0.3,5.8,1.1c1.6,0.7,2.9,1.8,3.8,3.2c0.9,1.5,1.4,3.1,1.4,4.9
			c0.1,3.3-1.8,6.4-4.8,7.8l5.3,7.8h-7.5L124.9,29.3z M128.2,17.6c-0.9-0.7-2.1-1-3.2-1h-3.9v7.2h3.9c1.2,0.1,2.3-0.2,3.2-0.9
			c0.8-0.7,1.2-1.7,1.1-2.7C129.4,19.3,128.9,18.3,128.2,17.6z"/>
		<path class="st0" d="M156,31.1h-10.5l-1.9,4.8h-7.1l10.9-24.8h6.9l11,24.8H158L156,31.1z M154,25.9l-3.3-7.9l-3.2,7.9H154z"/>
		<path class="st0" d="M190,11.1v24.8h-5.8l-10.9-13.2v13.2h-6.9V11.1h5.8l10.9,13.2V11.1H190z"/>
		<path class="st0" d="M194.2,11.1h11.7c2.5,0,5,0.5,7.2,1.5c2,1,3.7,2.5,4.9,4.4c1.2,2,1.8,4.2,1.7,6.5c0,2.3-0.6,4.5-1.7,6.5
			c-1.2,1.9-2.9,3.4-4.9,4.3c-2.3,1.1-4.7,1.6-7.2,1.5h-11.7V11.1z M205.6,30.3c1.9,0.1,3.7-0.6,5.1-1.8c1.3-1.3,2-3.1,1.9-5
			c0.1-1.9-0.6-3.7-1.9-5c-1.4-1.2-3.2-1.9-5.1-1.8h-4.4v13.6L205.6,30.3z"/>
	</g>
	<g>
		<path class="st1" d="M93,62.4c-2-1.1-3.7-2.6-4.9-4.6c-2.4-4.1-2.4-9.2,0-13.3c1.2-1.9,2.8-3.5,4.9-4.6c2.2-1.1,4.6-1.7,7-1.7
			c2.1,0,4.2,0.4,6.1,1.2c1.8,0.8,3.3,2,4.5,3.5l-4.5,4c-2.2-2.9-6.2-3.7-9.4-2c-1,0.6-1.9,1.4-2.4,2.5c-1.2,2.3-1.2,5.1,0,7.4
			c0.6,1,1.4,1.9,2.4,2.5c1.1,0.6,2.3,0.9,3.6,0.9c2.3,0,4.4-1.1,5.8-2.9l4.5,4c-1.2,1.5-2.8,2.7-4.5,3.5c-1.9,0.8-4,1.2-6.1,1.2
			C97.6,64.1,95.2,63.5,93,62.4z"/>
		<path class="st1" d="M132.8,58.1v5.4H113V38.8h19.4v5.4h-12.5v4.2h11v5.2h-11v4.5L132.8,58.1z"/>
		<path class="st1" d="M159.5,38.8v24.8h-5.7l-11-13.2v13.2h-6.9V38.8h5.8L152.6,52V38.8H159.5z"/>
		<path class="st1" d="M168.9,44.3h-7.6v-5.5h22.2v5.5h-7.6v19.2h-7L168.9,44.3z"/>
		<path class="st1" d="M196.2,57h-3.8v6.6h-7V38.8h11.3c2,0,4,0.3,5.8,1.1c1.6,0.7,2.9,1.8,3.8,3.2c0.9,1.5,1.4,3.1,1.3,4.9
			c0.1,3.4-1.8,6.5-4.9,7.8l5.3,7.8h-7.5L196.2,57z M199.5,45.3c-0.9-0.7-2.1-1.1-3.2-1h-3.9v7.2h3.9c1.2,0.1,2.3-0.2,3.2-0.9
			c0.8-0.7,1.2-1.7,1.1-2.7C200.6,46.9,200.2,45.9,199.5,45.3L199.5,45.3z"/>
		<path class="st1" d="M227.3,58.7h-10.5l-1.9,4.8h-7.1l10.9-24.8h6.9l11,24.8h-7.3L227.3,58.7z M225.3,53.6l-3.2-7.9l-3.2,7.9
			H225.3z"/>
		<path class="st1" d="M237.8,38.8h7V58h11.8v5.5h-18.8V38.8z"/>
	</g>
</g>
</svg>
