<svg xmlns="http://www.w3.org/2000/svg" viewBox="0 0 138 109.45"><title>thumbnail-default</title><path d="M138,0H0V109.45H138Zm-4.76,104.69H4.76V4.76H133.24Z" style="fill:#0075bf"/><path d="M31,50.79c12.54,6.78,25.27-6,18.47-18.5a10.55,10.55,0,0,0-4.24-4.24C32.64,21.29,19.93,34,26.7,46.54A10.6,10.6,0,0,0,31,50.79Zm2.16-18.42c8.3-4.93,17,3.75,12,12A5.92,5.92,0,0,1,43,46.48c-8.3,4.92-17-3.74-12-12A5.89,5.89,0,0,1,33.11,32.37Z" style="fill:#0075bf"/><path d="M16.66,95.17a2.38,2.38,0,0,0,1.57-.59L57,60.41,82.32,85.69a.16.16,0,0,0,.11,0c3.12.14,3.94-2.73,2.49-4.19L73.48,70.12,95.32,46.19l27.59,25.29a.16.16,0,0,0,.11,0c3.12,0,3.83-2.89,2.31-4.28L96.78,41.07a2.54,2.54,0,0,0-3-.25l0,0L70.11,66.75,58.83,55.46a2.38,2.38,0,0,0-3.26-.1L15.08,91a2.38,2.38,0,0,0,1.58,4.16Z" style="fill:#0075bf"/></svg>